<svg width="1440" height="565" viewBox="0 0 1440 565" fill="none" xmlns="http://www.w3.org/2000/svg">
  <g clip-path="url(#clip0_5_2647)">
    <path d="M2091.44 158.655C2053.51 182.017 2013.88 201.213 1970.74 213.615C1943.54 221.432 1916.29 227.832 1888.3 231.417C1867.38 234.094 1846.37 237.797 1825.31 236.736C1799.9 235.482 1774.52 235.094 1749.09 231.832C1714.87 227.4 1681.56 220.106 1648.94 209.405C1600.15 193.369 1555.1 170.02 1513.67 139.558C1487.72 120.476 1465.02 97.5612 1439.07 78.4795C1418.2 63.1543 1395.73 51.5372 1370.04 47.0617C1328 39.7377 1291.94 62.1811 1276.54 102.673C1270.59 118.36 1262.94 131.023 1240.17 129.576C1232.5 129.083 1226.28 125.477 1220.38 121.862C1209.42 115.16 1199.4 106.934 1189 99.3488C1172.69 87.4403 1154.07 81.9777 1134.3 83.4405C1109.13 85.2916 1085.75 94.3007 1063.97 106.849C1038.73 121.386 1015.76 139.6 989.33 152.437C974.264 159.754 958.938 164.794 942.364 167.585C912.555 172.6 884.947 164.712 857.12 156.043C827.462 146.834 799.344 133.446 769.468 124.874C750.611 119.457 731.75 115.301 711.959 114.559C665.385 112.759 624.976 129.534 586.79 153.771C542.596 181.839 504.9 217.878 466.261 252.644C412.69 300.869 355.676 344.542 294.402 382.663C268.651 398.671 242.654 414.332 215.57 427.857C162.219 454.45 107.261 477.268 49.8825 493.971C23.3456 501.69 -3.49275 508.512 -30.5848 513.332C-50.6489 516.891 -70.8763 520.257 -91.3847 522.056C-107.485 523.455 -123.611 523.909 -139.688 524.716C-158.722 525.646 -177.857 527.17 -196.828 526.089C-217.301 524.933 -237.789 523.265 -258.222 520.729C-291.802 516.554 -324.733 510.234 -357.375 501.543C-388.068 493.387 -417.876 483.04 -446.996 470.508C-497.486 448.769 -544.163 420.936 -586.584 385.893C-599.875 374.924 -612.361 363.144 -624.964 351.406" stroke="#F5A995" stroke-width="6" stroke-linecap="round" class="line-blush" stroke-linejoin="round"></path>
    
    <path d="M2091.44 158.655C2053.51 182.017 2013.88 201.213 1970.74 213.615C1943.54 221.432 1916.29 227.832 1888.3 231.417C1867.38 234.094 1846.37 237.797 1825.31 236.736C1799.9 235.482 1774.52 235.094 1749.09 231.832C1714.87 227.4 1681.56 220.106 1648.94 209.405C1600.15 193.369 1555.1 170.02 1513.67 139.558C1487.72 120.476 1465.02 97.5612 1439.07 78.4795C1418.2 63.1543 1395.73 51.5372 1370.04 47.0617C1328 39.7377 1291.94 62.1811 1276.54 102.673C1270.59 118.36 1262.94 131.023 1240.17 129.576C1232.5 129.083 1226.28 125.477 1220.38 121.862C1209.42 115.16 1199.4 106.934 1189 99.3488C1172.69 87.4403 1154.07 81.9777 1134.3 83.4405C1109.13 85.2916 1085.75 94.3007 1063.97 106.849C1038.73 121.386 1015.76 139.6 989.33 152.437C974.264 159.754 958.938 164.794 942.364 167.585C912.555 172.6 884.947 164.712 857.12 156.043C827.462 146.834 799.344 133.446 769.468 124.874C750.611 119.457 731.75 115.301 711.959 114.559C665.385 112.759 624.976 129.534 586.79 153.771C542.596 181.839 504.9 217.878 466.261 252.644C412.69 300.869 355.676 344.542 294.402 382.663C268.651 398.671 242.654 414.332 215.57 427.857C162.219 454.45 107.261 477.268 49.8825 493.971C23.3456 501.69 -3.49275 508.512 -30.5848 513.332C-50.6489 516.891 -70.8763 520.257 -91.3847 522.056C-107.485 523.455 -123.611 523.909 -139.688 524.716C-158.722 525.646 -177.857 527.17 -196.828 526.089C-217.301 524.933 -237.789 523.265 -258.222 520.729C-291.802 516.554 -324.733 510.234 -357.375 501.543C-388.068 493.387 -417.876 483.04 -446.996 470.508C-497.486 448.769 -544.163 420.936 -586.584 385.893C-599.875 374.924 -612.361 363.144 -624.964 351.406" stroke="#362F60" stroke-width="6" stroke-linecap="round" class="line-indigo" stroke-linejoin="round" style="stroke-dashoffset: -3020.23px; stroke-dasharray: 0px, 999999px;"></path>
    
  </g>
  <defs>
    <clipPath id="clip0_5_2647">
      <rect width="2676.46" height="489.145" fill="white" transform="translate(-589.078 75.5303) rotate(-1.61346)"></rect>
    </clipPath>
    <clipPath id="clip1_5_2647">
      <rect width="1511.74" height="437.462" fill="white" transform="translate(-636.063 98.9386) rotate(-1.61346)"></rect>
    </clipPath>
  </defs>
</svg>