<svg xmlns="http://www.w3.org/2000/svg" width="14" height="18" viewBox="0 0 14 18" fill="none">
                    <path d="M12.7544 15.6939C12.7544 16.5212 12.5827 16.8715 12.4346 17.0279C12.2948 17.1757 12.0474 17.2859 11.5311 17.2988C11.0353 17.3111 10.4358 17.2329 9.68779 17.1353C9.64907 17.1302 9.60995 17.1251 9.57044 17.12C8.79207 17.0187 7.89578 16.9078 6.94717 16.9078C5.99856 16.9078 5.10227 17.0187 4.3239 17.12C4.28438 17.1251 4.24527 17.1302 4.20655 17.1353C3.45857 17.2329 2.85899 17.3111 2.36324 17.2988C1.8469 17.2859 1.59957 17.1757 1.45969 17.0279C1.31162 16.8715 1.13994 16.5212 1.13994 15.6939C1.13994 12.4867 3.73993 9.88667 6.94717 9.88667C10.1544 9.88667 12.7544 12.4867 12.7544 15.6939ZM9.69217 3.82778C9.69217 5.55521 8.29182 6.95556 6.56439 6.95556C4.83697 6.95556 3.43661 5.55521 3.43661 3.82778C3.43661 2.10036 4.83697 0.7 6.56439 0.7C8.29182 0.7 9.69217 2.10036 9.69217 3.82778Z" stroke="#362F60" style="stroke: #fff;" stroke-width="1.4"></path>
                  </svg>