<svg xmlns="http://www.w3.org/2000/svg" width="20" height="21" viewBox="0 0 20 21" fill="none">
              <path fill-rule="evenodd" clip-rule="evenodd" d="M5.87701 0.0631866C6.94362 0.0120871 7.28416 0 10 0C12.7158 0 13.0564 0.0120871 14.123 0.0631866C15.1874 0.114161 15.9143 0.291675 16.5504 0.551257C17.208 0.81955 17.7656 1.17858 18.3216 1.76231C18.8775 2.34607 19.2195 2.93163 19.475 3.6221C19.7222 4.28998 19.8913 5.05326 19.9398 6.17086C19.9885 7.2908 20 7.64837 20 10.5C20 13.3516 19.9885 13.7092 19.9398 14.8291C19.8913 15.9467 19.7222 16.71 19.475 17.3779C19.2195 18.0684 18.8775 18.6539 18.3216 19.2377C17.7656 19.8214 17.208 20.1805 16.5504 20.4488C15.9143 20.7083 15.1874 20.8858 14.123 20.9368C13.0564 20.9879 12.7158 21 10 21C7.28416 21 6.94362 20.9879 5.87701 20.9368C4.81263 20.8858 4.08569 20.7083 3.44962 20.4488C2.79203 20.1805 2.23436 19.8214 1.67839 19.2377C1.12246 18.6539 0.780524 18.0684 0.525007 17.3779C0.277786 16.71 0.108725 15.9467 0.0601777 14.8291C0.0115116 13.7092 0 13.3516 0 10.5C0 7.64837 0.0115116 7.2908 0.0601777 6.17086C0.108725 5.05326 0.277786 4.28998 0.525007 3.6221C0.780524 2.93163 1.12246 2.34607 1.67839 1.76231C2.23436 1.17858 2.79203 0.81955 3.44962 0.551257C4.08569 0.291675 4.81263 0.114161 5.87701 0.0631866ZM15.8977 2.31465C15.5453 2.17085 15.0158 1.9998 14.0409 1.95312C12.9864 1.9026 12.6701 1.89189 10 1.89189C7.32989 1.89189 7.0136 1.9026 5.95914 1.95312C4.98415 1.9998 4.45466 2.17085 4.10229 2.31465C3.63551 2.50512 3.30239 2.73265 2.95248 3.1001C2.60253 3.46751 2.38583 3.81729 2.20443 4.3074C2.06748 4.67739 1.90457 5.23336 1.86011 6.2571C1.812 7.36428 1.8018 7.69639 1.8018 10.5C1.8018 13.3036 1.812 13.6357 1.86011 14.7429C1.90457 15.7666 2.06748 16.3226 2.20443 16.6926C2.38583 17.1827 2.60257 17.5325 2.95248 17.8999C3.30239 18.2673 3.63551 18.4949 4.10229 18.6854C4.45466 18.8292 4.98415 19.0002 5.95914 19.0469C7.01348 19.0974 7.32969 19.1081 10 19.1081C12.6703 19.1081 12.9866 19.0974 14.0409 19.0469C15.0158 19.0002 15.5453 18.8292 15.8977 18.6854C16.3645 18.4949 16.6976 18.2673 17.0475 17.8999C17.3975 17.5325 17.6142 17.1827 17.7956 16.6926C17.9325 16.3226 18.0954 15.7666 18.1399 14.7429C18.188 13.6357 18.1982 13.3036 18.1982 10.5C18.1982 7.69639 18.188 7.36428 18.1399 6.2571C18.0954 5.23336 17.9325 4.67739 17.7956 4.3074C17.6142 3.81729 17.3975 3.46751 17.0475 3.1001C16.6976 2.73265 16.3645 2.50512 15.8977 2.31465ZM10 5.10811C7.16393 5.10811 4.86487 7.52212 4.86487 10.5C4.86487 13.4779 7.16393 15.8919 10 15.8919C12.8361 15.8919 15.1351 13.4779 15.1351 10.5C15.1351 7.52212 12.8361 5.10811 10 5.10811ZM6.66667 10.5C6.66667 12.433 8.15904 14 10 14C11.841 14 13.3333 12.433 13.3333 10.5C13.3333 8.56699 11.841 7 10 7C8.15904 7 6.66667 8.56699 6.66667 10.5ZM15.338 6.15507C16.0008 6.15507 16.538 5.59097 16.538 4.89509C16.538 4.1992 16.0008 3.63506 15.338 3.63506C14.6753 3.63506 14.138 4.1992 14.138 4.89509C14.138 5.59097 14.6753 6.15507 15.338 6.15507Z" fill="#403A60"></path>
          </svg>