<svg xmlns="http://www.w3.org/2000/svg" width="14" height="13" viewBox="0 0 14 13" fill="none">
          <path d="M6.82065 0.363398C6.89402 0.214749 7.10598 0.214748 7.17935 0.363397L9.01071 4.07415C9.03985 4.13318 9.09616 4.1741 9.1613 4.18356L13.2564 4.77861C13.4204 4.80244 13.4859 5.00404 13.3672 5.11975L10.404 8.00817C10.3569 8.05411 10.3353 8.12031 10.3465 8.18519L11.046 12.2637C11.074 12.4271 10.9025 12.5517 10.7558 12.4745L7.09307 10.5489C7.0348 10.5183 6.9652 10.5183 6.90693 10.5489L3.2442 12.4745C3.09747 12.5517 2.92599 12.4271 2.95401 12.2637L3.65353 8.18519C3.66466 8.12031 3.64315 8.05411 3.59601 8.00817L0.632795 5.11975C0.514091 5.00404 0.579593 4.80244 0.743637 4.77861L4.8387 4.18356C4.90384 4.1741 4.96015 4.13318 4.98929 4.07415L6.82065 0.363398Z" fill="#2A2A2A"></path>
          </svg>