<svg xmlns="http://www.w3.org/2000/svg" width="105" height="36" viewBox="0 0 105 36" fill="none">
          <path d="M2.75091 0V6.29434C3.87045 4.76222 5.3799 4.24987 6.91612 4.24987C10.5358 4.24987 12.2025 6.62606 12.2025 10.2289V17.0258H9.52V10.2552C9.52 7.87901 8.26994 6.70488 6.29192 6.70488C4.20848 6.70488 2.75091 8.39136 2.75091 10.4605V17.0274H0.0683806V0H2.75091Z" fill="white"></path>
          <path d="M25.9233 4.42697L17.8255 22.8748H14.8568L17.5126 16.8449L12.3835 4.42697H15.5078L17.7201 10.3814L18.9953 13.958L20.3758 10.4323L22.9279 4.42862H25.9216L25.9233 4.42697Z" fill="white"></path>
          <path d="M38.9413 10.7387C38.9413 14.468 36.3106 17.2794 32.2759 17.2794C28.2412 17.2794 25.6625 14.468 25.6625 10.7387C25.6625 7.0094 28.2915 4.17177 32.2759 4.17177C36.2604 4.17177 38.9413 7.03239 38.9413 10.7387ZM28.3433 10.7387C28.3433 12.9868 29.8277 14.826 32.2759 14.826C34.7242 14.826 36.2336 12.9868 36.2336 10.7387C36.2336 8.49062 34.6204 6.59886 32.2759 6.59886C29.9314 6.59886 28.3433 8.51525 28.3433 10.7387Z" fill="white"></path>
          <path d="M42.9492 4.42958V11.1755C42.9492 13.3218 44.1992 14.803 46.4383 14.803C48.5485 14.803 50.0061 13.0919 50.0061 10.9965V4.42958H52.6869V17.0528H50.2655L50.1098 15.1873C48.8598 16.593 47.4792 17.2317 45.6836 17.2317C42.5325 17.2317 40.2683 15.0083 40.2683 11.2018V4.42958H42.9508H42.9492Z" fill="white"></path>
          <path d="M63.5415 17.0246V10.0997C63.5415 8.23421 62.4488 6.67581 60.5477 6.67581C58.6467 6.67581 57.4502 8.23421 57.4502 10.0997V17.0246H54.7676V4.40144H57.2678L57.4502 6.08792C58.1798 4.70852 59.6892 4.19781 61.0431 4.19781C62.683 4.19781 64.3498 4.86124 65.0794 6.72672C66.122 4.86124 67.7352 4.22245 69.4806 4.22245C73.0216 4.22245 74.9209 6.41964 74.9209 10.0488V17.0246H72.2133V10.0488C72.2133 8.18494 71.2762 6.70209 69.3751 6.70209C67.4741 6.70209 66.2508 8.23421 66.2508 10.0997V17.0246H63.5415Z" fill="white"></path>
          <path d="M87.2285 4.42914H89.8324V17.026H87.2804L87.1499 14.9816C86.2914 16.5909 84.3117 17.3578 82.7236 17.3578C78.9734 17.384 76.1353 15.0078 76.1353 10.7153C76.1353 6.42271 79.0772 4.14834 82.7755 4.14834C84.5979 4.14834 86.3416 4.99076 87.1499 6.42106L87.2269 4.4275L87.2285 4.42914ZM78.8195 10.7153C78.8195 13.3214 80.6937 14.906 82.9847 14.906C88.5305 14.906 88.5305 6.55079 82.9847 6.55079C80.6937 6.55079 78.8195 8.13382 78.8195 10.7153Z" fill="white"></path>
          <path d="M101.652 17.026V10.2801C101.652 8.10917 100.402 6.65259 98.1882 6.65259C95.9742 6.65259 94.5953 8.36535 94.5953 10.4344V17.026H91.9128V4.40285H94.3611L94.5167 6.24205C95.74 4.88892 97.1724 4.22385 98.8392 4.22385C101.964 4.22385 104.358 6.39477 104.358 10.2538V17.0244H101.651L101.652 17.026Z" fill="white"></path>
          <path d="M0 27.929H19.1526V30.3052H0V27.929Z" fill="white"></path>
          <path d="M24.3334 18.7442V28.308L29.0977 23.1468H32.3525V23.2995L26.8067 29.0749L33.1072 35.5647V35.7437H29.8273L24.3334 29.9173V35.7437H21.6241V18.7442H24.3334Z" fill="white"></path>
          <path d="M34.356 23.0958V35.7436H37.0385V23.0958H34.356Z" fill="white"></path>
          <path d="M48.5981 35.7443V28.9984C48.5981 26.8275 47.348 25.3709 45.134 25.3709C42.9201 25.3709 41.5412 27.0836 41.5412 29.1527V35.7443H38.8586V23.1211H41.3069L41.4625 24.9603C42.6858 23.6072 44.1183 22.9421 45.785 22.9421C48.9093 22.9421 51.304 25.1131 51.304 28.9721V35.7427H48.5964L48.5981 35.7443Z" fill="white"></path>
          <path d="M66.2236 35.7455H63.6984L63.5428 33.7519C62.527 35.3612 60.8084 36 59.0898 36C55.3663 36 52.5282 33.5975 52.5282 29.4331C52.5282 25.2686 55.3145 22.8661 59.0379 22.8661C60.6009 22.8661 62.7094 23.633 63.5428 25.1142V18.7443H66.2236V35.7455ZM55.2107 29.4347C55.2107 31.9636 57.0063 33.5483 59.2722 33.5483C61.538 33.5483 63.3604 31.9127 63.3604 29.4347C63.3604 26.9567 61.5112 25.3458 59.2722 25.3458C57.0331 25.3458 55.2107 26.8532 55.2107 29.4347Z" fill="white"></path>
          <path d="M37.3647 20.03C37.3647 22.2009 34.0312 22.2009 34.0312 20.03C34.0312 17.8591 37.3647 17.8837 37.3647 20.03Z" fill="white"></path>
          </svg>